#!OML:ASF E:\Steps\Project 1\Capture day 1\Session 2\Subject.ASF
:FULLY-SPECIFIED
:DEGREES
360
root 8.60939 16.3736 17.8895 198.847 79.9616 -185.787
lowerback -26.2509 -1.57525 -4.83695
upperback -6.10134 0.0956268 -2.17377
thorax 7.78014 0.254714 0.442465
lowerneck 5.18639 -11.4969 -6.17529
upperneck -10.4773 -14.7911 11.9614
head -2.5556 -7.6292 4.96924
rclavicle 1.39056e-014 -5.1684e-014
rhumerus -36.4266 -9.15018 -84.4145
rradius 19.762
rwrist 8.01766
rhand -4.59975 -55.8774
rfingers 7.12502
rthumb 21.1779 -84.7406
lclavicle 1.39056e-014 -5.1684e-014
lhumerus -30.105 -8.12987 73.3268
lradius 10.1543
lwrist -19.221
lhand -21.9032 -15.5729
lfingers 7.12502
lthumb 4.5022 14.3593
rfemur -37.6514 13.8121 13.4615
rtibia 20.6071
rfoot -34.0248 -19.5397
rtoes -45.5305
lfemur -37.862 -15.0617 -12.112
ltibia 21.9063
lfoot -25.6074 10.3698
ltoes -42.9311
361
root 8.5923 16.3811 17.8997 197.842 79.9496 -186.788
lowerback -25.9545 -1.68322 -5.16972
upperback -6.14716 0.0197779 -2.16388
thorax 7.58223 0.217901 0.621202
lowerneck 4.75673 -11.3607 -5.88137
upperneck -10.1113 -14.6199 11.5766
head -2.44651 -7.52427 4.77177
rclavicle 5.17919e-014 -5.80451e-014
rhumerus -36.5377 -9.38211 -84.3063
rradius 19.5651
rwrist 8.72164
rhand -4.68228 -56.0132
rfingers 7.12502
rthumb 21.0987 -84.8853
lclavicle 5.17919e-014 -5.80451e-014
lhumerus -30.4395 -6.60825 72.9739
lradius 10.1474
lwrist -20.7747
lhand -21.1914 -15.9238
lfingers 7.12502
lthumb 5.18958 13.9927
rfemur -37.815 13.876 13.1979
rtibia 20.7637
rfoot -34.0888 -19.3807
rtoes -44.9742
lfemur -38.0322 -15.0147 -12.2404
ltibia 22.0998
lfoot -25.8818 9.76926
ltoes -40.9758
362
root 8.60128 16.3701 17.8955 195.266 80.1348 -189.176
lowerback -25.8873 -1.70593 -5.57241
upperback -6.032 0.101217 -2.29151
thorax 7.67199 0.244419 0.735098
lowerneck 4.26399 -11.1 -5.5177
upperneck -9.93643 -14.2536 11.2265
head -2.40113 -7.32442 4.58139
rclavicle -2.5967e-014 2.78299e-014
rhumerus -36.4361 -10.0855 -84.0158
rradius 19.055
rwrist 9.82506
rhand -4.81889 -55.9058
rfingers 7.12502
rthumb 20.9674 -84.7925
lclavicle -2.5967e-014 2.78299e-014
lhumerus -30.5986 -0.544547 70.3653
lradius 10.1436
lwrist -27.3273
lhand -19.5198 -17.365
lfingers 7.12502
lthumb 6.80339 12.5057
rfemur -37.4445 13.7953 12.8954
rtibia 20.5879
rfoot -33.8419 -19.7186
rtoes -45.9301
lfemur -37.5571 -15.4472 -12.7719
ltibia 21.9043
lfoot -26.1184 9.78987
ltoes -40.7159
363
root 8.57778 16.3869 17.9074 198.283 79.8676 -186.337
lowerback -25.7584 -1.69777 -5.16592
upperback -6.12773 -0.0214963 -2.14853
thorax 7.50695 0.196663 0.623769
lowerneck 3.79482 -10.8421 -5.19114
upperneck -9.81548 -13.8891 10.9342
head -2.36545 -7.12773 4.41714
rclavicle -7.14538e-015 2.3059e-014
rhumerus -36.2875 -10.9522 -83.6686
rradius 18.5299
rwrist 11.0092
rhand -4.73352 -55.3465
rfingers 7.12502
rthumb 21.0494 -84.2241
lclavicle -7.14538e-015 2.3059e-014
lhumerus -30.888 3.43185 68.6542
lradius 10.1134
lwrist -31.3935
lhand -17.4545 -19.1753
lfingers 7.12502
lthumb 8.79673 10.6214
rfemur -37.8631 14.0034 13.2868
rtibia 20.712
rfoot -33.6444 -20.3665
rtoes -46.3276
lfemur -38.2226 -15.7622 -11.7533
ltibia 22.2795
lfoot -26.5375 9.55004
ltoes -39.1348
364
root 8.57038 16.3926 17.9125 199.326 79.8168 -185.294
lowerback -25.6947 -1.66738 -5.03165
upperback -6.10205 -0.0308846 -2.10286
thorax 7.50395 0.19106 0.594589
lowerneck 3.32154 -10.7395 -4.88473
upperneck -9.33819 -13.7976 10.2926
head -2.4778 -7.03048 4.59592
rclavicle -1.44958e-014 3.97569e-015
rhumerus -36.1144 -11.5095 -83.5007
rradius 18.1127
rwrist 12.14
rhand -4.70169 -55.0441
rfingers 7.12502
rthumb 21.08 -83.9183
lclavicle -1.44958e-014 3.97569e-015
lhumerus -31.0131 2.93009 69.2277
lradius 9.93141
lwrist -30.5635
lhand -16.844 -19.5203
lfingers 7.12502
lthumb 9.38588 10.2507
rfemur -37.9065 14.1559 13.4438
rtibia 20.7028
rfoot -33.8162 -20.1488
rtoes -45.5912
lfemur -38.2653 -15.7095 -11.3759
ltibia 22.3621
lfoot -27.1571 7.65329
ltoes -31.2907
